<svg width="64" height="64" viewBox="0 0 64 64" fill="none" xmlns="http://www.w3.org/2000/svg">
<path d="M61 52H57V25C56.9984 23.6744 56.4711 22.4036 55.5338 21.4662C54.5964 20.5289 53.3256 20.0016 52 20H45C44.7348 20 44.4804 20.1054 44.2929 20.2929C44.1054 20.4804 44 20.7348 44 21C44 21.2652 44.1054 21.5196 44.2929 21.7071C44.4804 21.8946 44.7348 22 45 22H52C52.7956 22 53.5587 22.3161 54.1213 22.8787C54.6839 23.4413 55 24.2044 55 25V52H39C38.7348 52 38.4804 52.1054 38.2929 52.2929C38.1054 52.4804 38 52.7348 38 53V55H26V53C26 52.7348 25.8946 52.4804 25.7071 52.2929C25.5196 52.1054 25.2652 52 25 52H3C2.73478 52 2.48043 52.1054 2.29289 52.2929C2.10536 52.4804 2 52.7348 2 53V57C2.00159 58.3256 2.52888 59.5964 3.46622 60.5338C4.40356 61.4711 5.6744 61.9984 7 62H21C21.2652 62 21.5196 61.8946 21.7071 61.7071C21.8946 61.5196 22 61.2652 22 61C22 60.7348 21.8946 60.4804 21.7071 60.2929C21.5196 60.1054 21.2652 60 21 60H7C6.20435 60 5.44129 59.6839 4.87868 59.1213C4.31607 58.5587 4 57.7956 4 57V54H24V56C24 56.2652 24.1054 56.5196 24.2929 56.7071C24.4804 56.8946 24.7348 57 25 57H39C39.2652 57 39.5196 56.8946 39.7071 56.7071C39.8946 56.5196 40 56.2652 40 56V54H60V57C60 57.7956 59.6839 58.5587 59.1213 59.1213C58.5587 59.6839 57.7956 60 57 60H25C24.7348 60 24.4804 60.1054 24.2929 60.2929C24.1054 60.4804 24 60.7348 24 61C24 61.2652 24.1054 61.5196 24.2929 61.7071C24.4804 61.8946 24.7348 62 25 62H57C58.3256 61.9984 59.5964 61.4711 60.5338 60.5338C61.4711 59.5964 61.9984 58.3256 62 57V53C62 52.7348 61.8946 52.4804 61.7071 52.2929C61.5196 52.1054 61.2652 52 61 52Z" fill="#2a6b5b" id="id_139"></path>
<path d="M57 58C57.5523 58 58 57.5523 58 57C58 56.4477 57.5523 56 57 56C56.4477 56 56 56.4477 56 57C56 57.5523 56.4477 58 57 58Z" fill="#737a78" id="id_140"></path>
<path d="M53 58C53.5523 58 54 57.5523 54 57C54 56.4477 53.5523 56 53 56C52.4477 56 52 56.4477 52 57C52 57.5523 52.4477 58 53 58Z" fill="#6f7876" id="id_141"></path>
<path d="M11 58C11.5523 58 12 57.5523 12 57C12 56.4477 11.5523 56 11 56C10.4477 56 10 56.4477 10 57C10 57.5523 10.4477 58 11 58Z" fill="#6d7875" id="id_142"></path>
<path d="M7 58C7.55228 58 8 57.5523 8 57C8 56.4477 7.55228 56 7 56C6.44772 56 6 56.4477 6 57C6 57.5523 6.44772 58 7 58Z" fill="#6c7573" id="id_143"></path>
<path d="M36 37C36.5523 37 37 36.5523 37 36C37 35.4477 36.5523 35 36 35C35.4477 35 35 35.4477 35 36C35 36.5523 35.4477 37 36 37Z" fill="#ebd45e" id="id_144"></path>
<path d="M40 37C40.5523 37 41 36.5523 41 36C41 35.4477 40.5523 35 40 35C39.4477 35 39 35.4477 39 36C39 36.5523 39.4477 37 40 37Z" fill="#e6d061" id="id_145"></path>
<path d="M44 37C44.5523 37 45 36.5523 45 36C45 35.4477 44.5523 35 44 35C43.4477 35 43 35.4477 43 36C43 36.5523 43.4477 37 44 37Z" fill="#e3cd5d" id="id_146"></path>
<path d="M48 37C48.5523 37 49 36.5523 49 36C49 35.4477 48.5523 35 48 35C47.4477 35 47 35.4477 47 36C47 36.5523 47.4477 37 48 37Z" fill="#e8d15d" id="id_147"></path>
<path d="M45 43C44.7348 43 44.4804 43.1054 44.2929 43.2929C44.1054 43.4804 44 43.7348 44 44V48C44 48.2652 44.1054 48.5196 44.2929 48.7071C44.4804 48.8946 44.7348 49 45 49H51C51.2652 49 51.5196 48.8946 51.7071 48.7071C51.8946 48.5196 52 48.2652 52 48V44C52 43.7348 51.8946 43.4804 51.7071 43.2929C51.5196 43.1054 51.2652 43 51 43H45ZM50 47H46V45H50V47Z" fill="#296b5a" id="id_148"></path>
<path d="M35 43C34.7348 43 34.4804 43.1054 34.2929 43.2929C34.1054 43.4804 34 43.7348 34 44V48C34 48.2652 34.1054 48.5196 34.2929 48.7071C34.4804 48.8946 34.7348 49 35 49H41C41.2652 49 41.5196 48.8946 41.7071 48.7071C41.8946 48.5196 42 48.2652 42 48V44C42 43.7348 41.8946 43.4804 41.7071 43.2929C41.5196 43.1054 41.2652 43 41 43H35ZM40 47H36V45H40V47Z" fill="#296b5a" id="id_149"></path>
<path d="M59 2H22C21.2044 2 20.4413 2.31607 19.8787 2.87868C19.3161 3.44129 19 4.20435 19 5V15C19 15.7956 19.3161 16.5587 19.8787 17.1213C20.4413 17.6839 21.2044 18 22 18H31.526L33.162 20H12C10.6744 20.0016 9.40356 20.5289 8.46622 21.4662C7.52888 22.4036 7.00159 23.6744 7 25V49C7 49.2652 7.10536 49.5196 7.29289 49.7071C7.48043 49.8946 7.73478 50 8 50C8.26522 50 8.51957 49.8946 8.70711 49.7071C8.89464 49.5196 9 49.2652 9 49V25C9 24.2044 9.31607 23.4413 9.87868 22.8787C10.4413 22.3161 11.2044 22 12 22H34.8L40.227 28.633C40.3207 28.7476 40.4386 28.8399 40.5723 28.9034C40.7059 28.9668 40.852 28.9998 41 29C41.1146 29.0001 41.2283 28.9802 41.336 28.941C41.5302 28.8717 41.6982 28.7441 41.8171 28.5757C41.9359 28.4072 41.9998 28.2062 42 28V18H59C59.7956 18 60.5587 17.6839 61.1213 17.1213C61.6839 16.5587 62 15.7956 62 15V5C62 4.20435 61.6839 3.44129 61.1213 2.87868C60.5587 2.31607 59.7956 2 59 2V2ZM60 15C60 15.2652 59.8946 15.5196 59.7071 15.7071C59.5196 15.8946 59.2652 16 59 16H41C40.7348 16 40.4804 16.1054 40.2929 16.2929C40.1054 16.4804 40 16.7348 40 17V25.2L32.774 16.369C32.6804 16.2539 32.5624 16.1612 32.4286 16.0973C32.2947 16.0335 32.1483 16.0003 32 16H22C21.7348 16 21.4804 15.8946 21.2929 15.7071C21.1054 15.5196 21 15.2652 21 15V5C21 4.73478 21.1054 4.48043 21.2929 4.29289C21.4804 4.10536 21.7348 4 22 4H59C59.2652 4 59.5196 4.10536 59.7071 4.29289C59.8946 4.48043 60 4.73478 60 5V15Z" fill="#256656" id="id_150"></path>
<path d="M30.464 8C30.3314 7.77087 30.1133 7.60367 29.8577 7.53506C29.602 7.46645 29.3295 7.50203 29.1 7.634L28 8.268V7C28 6.73478 27.8946 6.48043 27.7071 6.29289C27.5196 6.10536 27.2652 6 27 6C26.7348 6 26.4804 6.10536 26.2929 6.29289C26.1054 6.48043 26 6.73478 26 7V8.268L24.9 7.634C24.6704 7.50348 24.3986 7.46906 24.1437 7.53825C23.8889 7.60744 23.6718 7.77462 23.5397 8.00331C23.4077 8.23199 23.3715 8.50362 23.439 8.75892C23.5065 9.01421 23.6722 9.23245 23.9 9.366L25 10L23.9 10.634C23.7854 10.6992 23.6847 10.7864 23.6039 10.8906C23.5231 10.9949 23.4637 11.114 23.4292 11.2413C23.3946 11.3686 23.3856 11.5014 23.4026 11.6322C23.4196 11.763 23.4623 11.8891 23.5282 12.0033C23.5942 12.1175 23.6821 12.2176 23.7868 12.2977C23.8916 12.3778 24.0112 12.4364 24.1387 12.4701C24.2662 12.5038 24.3991 12.512 24.5297 12.4941C24.6604 12.4762 24.7862 12.4327 24.9 12.366L26 11.732V13C26 13.2652 26.1054 13.5196 26.2929 13.7071C26.4804 13.8946 26.7348 14 27 14C27.2652 14 27.5196 13.8946 27.7071 13.7071C27.8946 13.5196 28 13.2652 28 13V11.732L29.1 12.366C29.2138 12.4327 29.3396 12.4762 29.4703 12.4941C29.6009 12.512 29.7338 12.5038 29.8613 12.4701C29.9888 12.4364 30.1084 12.3778 30.2132 12.2977C30.3179 12.2176 30.4058 12.1175 30.4718 12.0033C30.5377 11.8891 30.5804 11.763 30.5974 11.6322C30.6144 11.5014 30.6054 11.3686 30.5708 11.2413C30.5363 11.114 30.4769 10.9949 30.3961 10.8906C30.3153 10.7864 30.2146 10.6992 30.1 10.634L29 10L30.1 9.366C30.3293 9.23305 30.4965 9.01449 30.5648 8.75835C30.633 8.5022 30.5968 8.22944 30.464 8Z" fill="#e8bd74" id="id_151"></path>
<path d="M39.464 8C39.3314 7.77087 39.1133 7.60367 38.8577 7.53506C38.602 7.46645 38.3295 7.50203 38.1 7.634L37 8.268V7C37 6.73478 36.8946 6.48043 36.7071 6.29289C36.5196 6.10536 36.2652 6 36 6C35.7348 6 35.4804 6.10536 35.2929 6.29289C35.1054 6.48043 35 6.73478 35 7V8.268L33.9 7.634C33.6704 7.50348 33.3986 7.46906 33.1437 7.53825C32.8889 7.60744 32.6718 7.77462 32.5397 8.00331C32.4077 8.23199 32.3715 8.50362 32.439 8.75892C32.5065 9.01421 32.6722 9.23245 32.9 9.366L34 10L32.9 10.634C32.7854 10.6992 32.6847 10.7864 32.6039 10.8906C32.5231 10.9949 32.4637 11.114 32.4292 11.2413C32.3946 11.3686 32.3856 11.5014 32.4026 11.6322C32.4196 11.763 32.4623 11.8891 32.5282 12.0033C32.5942 12.1175 32.6821 12.2176 32.7868 12.2977C32.8916 12.3778 33.0112 12.4364 33.1387 12.4701C33.2662 12.5038 33.3991 12.512 33.5297 12.4941C33.6604 12.4762 33.7862 12.4327 33.9 12.366L35 11.732V13C35 13.2652 35.1054 13.5196 35.2929 13.7071C35.4804 13.8946 35.7348 14 36 14C36.2652 14 36.5196 13.8946 36.7071 13.7071C36.8946 13.5196 37 13.2652 37 13V11.732L38.1 12.366C38.3296 12.4965 38.6014 12.5309 38.8563 12.4617C39.1111 12.3926 39.3282 12.2254 39.4603 11.9967C39.5923 11.768 39.6285 11.4964 39.561 11.2411C39.4935 10.9858 39.3278 10.7676 39.1 10.634L38 10L39.1 9.366C39.3293 9.23305 39.4965 9.01449 39.5648 8.75835C39.633 8.5022 39.5968 8.22944 39.464 8V8Z" fill="#e6bd75" id="id_152"></path>
<path d="M48.464 8C48.3314 7.77087 48.1133 7.60367 47.8577 7.53506C47.602 7.46645 47.3295 7.50203 47.1 7.634L46 8.268V7C46 6.73478 45.8946 6.48043 45.7071 6.29289C45.5196 6.10536 45.2652 6 45 6C44.7348 6 44.4804 6.10536 44.2929 6.29289C44.1054 6.48043 44 6.73478 44 7V8.268L42.9 7.634C42.7862 7.5673 42.6604 7.52377 42.5297 7.5059C42.3991 7.48804 42.2662 7.49619 42.1387 7.5299C42.0112 7.56361 41.8916 7.62221 41.7868 7.70231C41.6821 7.78242 41.5942 7.88246 41.5282 7.99667C41.4623 8.11088 41.4196 8.23701 41.4026 8.36779C41.3856 8.49857 41.3946 8.63142 41.4292 8.75869C41.4637 8.88597 41.5231 9.00515 41.6039 9.10937C41.6847 9.2136 41.7854 9.30082 41.9 9.366L43 10L41.9 10.634C41.7854 10.6992 41.6847 10.7864 41.6039 10.8906C41.5231 10.9949 41.4637 11.114 41.4292 11.2413C41.3946 11.3686 41.3856 11.5014 41.4026 11.6322C41.4196 11.763 41.4623 11.8891 41.5282 12.0033C41.5942 12.1175 41.6821 12.2176 41.7868 12.2977C41.8916 12.3778 42.0112 12.4364 42.1387 12.4701C42.2662 12.5038 42.3991 12.512 42.5297 12.4941C42.6604 12.4762 42.7862 12.4327 42.9 12.366L44 11.732V13C44 13.2652 44.1054 13.5196 44.2929 13.7071C44.4804 13.8946 44.7348 14 45 14C45.2652 14 45.5196 13.8946 45.7071 13.7071C45.8946 13.5196 46 13.2652 46 13V11.732L47.1 12.366C47.3296 12.4965 47.6014 12.5309 47.8563 12.4617C48.1111 12.3926 48.3282 12.2254 48.4603 11.9967C48.5923 11.768 48.6285 11.4964 48.561 11.2411C48.4935 10.9858 48.3278 10.7676 48.1 10.634L47 10L48.1 9.366C48.3293 9.23305 48.4965 9.01449 48.5648 8.75835C48.633 8.5022 48.5968 8.22944 48.464 8V8Z" fill="#e0b56b" id="id_153"></path>
<path d="M57.464 8C57.3314 7.77087 57.1133 7.60367 56.8577 7.53506C56.602 7.46645 56.3295 7.50203 56.1 7.634L55 8.268V7C55 6.73478 54.8946 6.48043 54.7071 6.29289C54.5196 6.10536 54.2652 6 54 6C53.7348 6 53.4804 6.10536 53.2929 6.29289C53.1054 6.48043 53 6.73478 53 7V8.268L51.9 7.634C51.7862 7.5673 51.6604 7.52377 51.5297 7.5059C51.3991 7.48804 51.2662 7.49619 51.1387 7.5299C51.0112 7.56361 50.8916 7.62221 50.7868 7.70231C50.6821 7.78242 50.5942 7.88246 50.5282 7.99667C50.4623 8.11088 50.4196 8.23701 50.4026 8.36779C50.3856 8.49857 50.3946 8.63142 50.4292 8.75869C50.4637 8.88597 50.5231 9.00515 50.6039 9.10937C50.6847 9.2136 50.7854 9.30082 50.9 9.366L52 10L50.9 10.634C50.7854 10.6992 50.6847 10.7864 50.6039 10.8906C50.5231 10.9949 50.4637 11.114 50.4292 11.2413C50.3946 11.3686 50.3856 11.5014 50.4026 11.6322C50.4196 11.763 50.4623 11.8891 50.5282 12.0033C50.5942 12.1175 50.6821 12.2176 50.7868 12.2977C50.8916 12.3778 51.0112 12.4364 51.1387 12.4701C51.2662 12.5038 51.3991 12.512 51.5297 12.4941C51.6604 12.4762 51.7862 12.4327 51.9 12.366L53 11.732V13C53 13.2652 53.1054 13.5196 53.2929 13.7071C53.4804 13.8946 53.7348 14 54 14C54.2652 14 54.5196 13.8946 54.7071 13.7071C54.8946 13.5196 55 13.2652 55 13V11.732L56.1 12.366C56.3296 12.4965 56.6014 12.5309 56.8563 12.4617C57.1111 12.3926 57.3282 12.2254 57.4603 11.9967C57.5923 11.768 57.6285 11.4964 57.561 11.2411C57.4935 10.9858 57.3278 10.7676 57.1 10.634L56 10L57.1 9.366C57.3293 9.23305 57.4965 9.01449 57.5648 8.75835C57.633 8.5022 57.5968 8.22944 57.464 8V8Z" fill="#e6b96c" id="id_154"></path>
<path d="M32 29H31.657C30.6597 28.9947 29.6664 28.8715 28.698 28.633C28.4401 28.5709 28.1681 28.6139 27.9418 28.7524C27.7155 28.8909 27.5536 29.1136 27.4915 29.3715C27.4294 29.6294 27.4724 29.9014 27.6109 30.1277C27.7494 30.3539 27.9721 30.5159 28.23 30.578C29.1387 30.7991 30.0661 30.9347 31 30.983V33.271C31.0047 35.2214 30.5683 37.1476 29.7234 38.9054C28.8785 40.6633 27.647 42.2073 26.121 43.422L22 46.72L17.879 43.42C16.4399 42.2685 15.2621 40.8243 14.4237 39.183C13.5853 37.5417 13.1054 35.7409 13.016 33.9C12.9983 33.6368 12.8791 33.3907 12.6837 33.2135C12.4882 33.0364 12.2317 32.9419 11.968 32.95C11.8366 32.9564 11.7078 32.9886 11.5889 33.0449C11.47 33.1012 11.3634 33.1803 11.2752 33.2779C11.1869 33.3754 11.1188 33.4894 11.0746 33.6133C11.0305 33.7372 11.0113 33.8686 11.018 34C11.1218 36.1239 11.6757 38.2016 12.6433 40.0953C13.6108 41.9889 14.9697 43.6553 16.63 44.984L21.375 48.784C21.5524 48.926 21.7728 49.0034 22 49.0034C22.2272 49.0034 22.4476 48.926 22.625 48.784L27.37 44.984C29.131 43.5826 30.5521 41.801 31.5271 39.7726C32.5021 37.7442 33.0056 35.5215 33 33.271V33H51V39H34.252C33.9868 39 33.7324 39.1053 33.5449 39.2929C33.3574 39.4804 33.252 39.7348 33.252 40C33.252 40.2652 33.3574 40.5196 33.5449 40.7071C33.7324 40.8946 33.9868 41 34.252 41H52C52.2652 41 52.5196 40.8946 52.7071 40.7071C52.8946 40.5196 53 40.2652 53 40V32C53 31.7348 52.8946 31.4804 52.7071 31.2929C52.5196 31.1053 52.2652 31 52 31H33V30C33 29.7348 32.8946 29.4804 32.7071 29.2929C32.5196 29.1053 32.2652 29 32 29Z" fill="#246353" id="id_155"></path>
<path d="M25.256 27.244C24.3272 26.7042 23.4706 26.0487 22.707 25.293C22.5195 25.1056 22.2652 25.0002 22 25.0002C21.7348 25.0002 21.4805 25.1056 21.293 25.293C20.1205 26.4722 18.7258 27.407 17.1895 28.0433C15.6531 28.6797 14.0059 29.0048 12.343 29H12C11.7348 29 11.4804 29.1054 11.2929 29.2929C11.1054 29.4805 11 29.7348 11 30C11 30.2652 11.1054 30.5196 11.2929 30.7071C11.4804 30.8947 11.7348 31 12 31H12.343C15.8978 31.0098 19.3331 29.7174 22 27.367C22.6964 27.9684 23.4469 28.504 24.242 28.967C24.3554 29.0372 24.4817 29.0839 24.6134 29.1045C24.7451 29.1251 24.8796 29.1192 25.009 29.0871C25.1384 29.0549 25.26 28.9972 25.3668 28.9174C25.4736 28.8376 25.5633 28.7372 25.6307 28.6222C25.6981 28.5072 25.7419 28.3798 25.7593 28.2476C25.7768 28.1155 25.7677 27.9811 25.7325 27.8526C25.6973 27.724 25.6368 27.6037 25.5544 27.4989C25.4721 27.394 25.3696 27.3067 25.253 27.242L25.256 27.244Z" fill="#256656" id="id_156"></path>
<path d="M26.293 33.293L22 37.586L19.707 35.293C19.5184 35.1109 19.2658 35.0101 19.0036 35.0124C18.7414 35.0146 18.4906 35.1198 18.3052 35.3052C18.1198 35.4906 18.0146 35.7414 18.0123 36.0036C18.0101 36.2658 18.1109 36.5184 18.293 36.707L21.293 39.707C21.4805 39.8945 21.7348 39.9998 22 39.9998C22.2652 39.9998 22.5195 39.8945 22.707 39.707L27.707 34.707C27.8892 34.5184 27.99 34.2658 27.9877 34.0036C27.9854 33.7414 27.8802 33.4906 27.6948 33.3052C27.5094 33.1198 27.2586 33.0146 26.9964 33.0124C26.7342 33.0101 26.4816 33.1109 26.293 33.293V33.293Z" fill="#ebcc5e" id="id_157"></path>
</svg>