<svg version="1.1" id="gradient" xmlns="http://www.w3.org/2000/svg" xmlns:xlink="http://www.w3.org/1999/xlink" x="0px" y="0px" viewBox="0 0 512 512" enable-background="new 0 0 512 512" xml:space="preserve">
<linearGradient id="SVGID_1_" gradientUnits="userSpaceOnUse" x1="60.2102" y1="411.7898" x2="451.7898" y2="20.2102">
<stop offset="0" style="stop-color: rgb(23, 101, 110);" id="id_102"></stop>
<stop offset="0.5216" style="stop-color: rgb(120, 99, 24);" id="id_103"></stop>
<stop offset="0.9897" style="stop-color: rgb(22, 103, 112);" id="id_104"></stop>
</linearGradient>
<path fill="url(#SVGID_1_)" d="M468,48H44c-15.439,0-28,12.561-28,28v280c0,15.439,12.561,28,28,28h161.222l-8,48h-28.751
	c-8.836,0-16.303,6.326-17.756,15.041l-6.607,39.644c-0.386,2.32,0.268,4.692,1.787,6.486c1.521,1.794,3.753,2.829,6.104,2.829h208
	c2.352,0,4.584-1.035,6.104-2.829c1.52-1.794,2.173-4.166,1.787-6.486l-6.607-39.644c-1.453-8.715-8.92-15.041-17.756-15.041
	h-28.751l-8-48H468c15.439,0,28-12.561,28-28V76C496,60.561,483.439,48,468,48z M44,64h424c6.617,0,12,5.383,12,12v244H32V76
	C32,69.383,37.383,64,44,64z M345.501,449.672L350.557,480H161.443l5.056-30.328c0.161-0.969,0.991-1.672,1.973-1.672h175.057
	C344.51,448,345.34,448.703,345.501,449.672z M298.556,432h-85.112l8-48h69.112L298.556,432z M468,368H44c-6.617,0-12-5.383-12-12
	v-20h448v20C480,362.617,474.617,368,468,368z M304,352c0,4.418-3.582,8-8,8h-80c-4.418,0-8-3.582-8-8s3.582-8,8-8h80
	C300.418,344,304,347.582,304,352z M384,352c0,4.418-3.582,8-8,8h-48c-4.418,0-8-3.582-8-8s3.582-8,8-8h48
	C380.418,344,384,347.582,384,352z M192,352c0,4.418-3.582,8-8,8h-48c-4.418,0-8-3.582-8-8s3.582-8,8-8h48
	C188.418,344,192,347.582,192,352z M464.02,352c0,4.418-3.581,8-8,8c-4.418,0-8.005-3.582-8.005-8s3.577-8,7.995-8h0.01
	C460.438,344,464.02,347.582,464.02,352z M440.02,352c0,4.418-3.581,8-8,8c-4.418,0-8.005-3.582-8.005-8s3.577-8,7.995-8h0.01
	C436.438,344,440.02,347.582,440.02,352z M416.02,352c0,4.418-3.581,8-8,8c-4.418,0-8.005-3.582-8.005-8s3.577-8,7.995-8h0.01
	C412.438,344,416.02,347.582,416.02,352z M56,312h80c4.418,0,8-3.582,8-8v-24c0-18.061-10.03-33.817-24.809-42.008
	C124.639,232.254,128,224.518,128,216c0-17.645-14.355-32-32-32s-32,14.355-32,32c0,8.517,3.346,16.264,8.792,22.001
	C58.022,246.196,48,261.946,48,280v24C48,308.418,51.582,312,56,312z M80,216c0-8.822,7.178-16,16-16s16,7.178,16,16
	s-7.178,16-16,16S80,224.822,80,216z M64,280c0-17.645,14.355-32,32-32s32,14.355,32,32v16H64V280z M168,240h176
	c4.418,0,8-3.582,8-8v-32c0-4.418-3.582-8-8-8H168c-4.418,0-8,3.582-8,8v32C160,236.418,163.582,240,168,240z M336,224H208v-16h128
	V224z M176,208h16v16h-16V208z M168,304h176c4.418,0,8-3.582,8-8v-32c0-4.418-3.582-8-8-8H168c-4.418,0-8,3.582-8,8v32
	C160,300.418,163.582,304,168,304z M336,288H208v-16h128V288z M176,272h16v16h-16V272z M376,304h80c4.418,0,8-3.582,8-8v-64
	c0-4.418-3.582-8-8-8v-13.243C456,196.003,443.997,184,429.243,184h-26.486C388.003,184,376,196.003,376,210.757V224
	c-4.418,0-8,3.582-8,8v64C368,300.418,371.582,304,376,304z M448,288h-64v-48h64V288z M392,210.757
	c0-5.932,4.825-10.757,10.757-10.757h26.486c5.932,0,10.757,4.825,10.757,10.757V224h-48V210.757z M224,104V88c0-4.418,3.582-8,8-8
	h64c4.418,0,8,3.582,8,8v80c0,4.418-3.582,8-8,8h-64c-4.418,0-8-3.582-8-8v-16c0-4.418,3.582-8,8-8s8,3.582,8,8v8h48V96h-48v8
	c0,4.418-3.582,8-8,8S224,108.418,224,104z M192,128c0-4.418,3.582-8,8-8h52.686l-2.343-2.343c-3.124-3.125-3.124-8.189,0-11.314
	c3.125-3.123,8.189-3.123,11.314,0l16,16c3.124,3.125,3.124,8.189,0,11.314l-16,16C260.095,151.219,258.048,152,256,152
	s-4.095-0.781-5.657-2.343c-3.124-3.125-3.124-8.189,0-11.314l2.343-2.343H200C195.582,136,192,132.418,192,128z" id="id_101"></path>
</svg>